<svg width="1200" height="1000" viewBox="0 0 1200 1000" fill="none" xmlns="http://www.w3.org/2000/svg">
  <rect width="1200" height="1000" fill="#EDE5DA"/>
  <rect x="95" y="95" width="1010" height="810" rx="2" fill="#F7F2EB" stroke="#B5935A" stroke-width="2"/>
  <path d="M170 730C290 610 390 545 520 545C650 545 790 625 1030 730V855H170V730Z" fill="#D9C9B5"/>
  <path d="M194 720C320 615 410 585 520 585C640 585 770 640 1004 725" stroke="#B5935A" stroke-width="2"/>
  <path d="M735 245C735 190 780 150 835 150C890 150 935 190 935 245V275H735V245Z" fill="#141414"/>
  <rect x="720" y="270" width="230" height="390" rx="10" fill="#24201B"/>
  <rect x="760" y="330" width="150" height="150" fill="#F7F2EB"/>
  <path d="M794 370H876" stroke="#B5935A" stroke-width="3"/>
  <text x="835" y="414" text-anchor="middle" fill="#141414" font-family="Georgia, serif" font-size="24" letter-spacing="4">TANELIA</text>
  <text x="835" y="445" text-anchor="middle" fill="#765C35" font-family="Arial, sans-serif" font-size="12" letter-spacing="3">CARE</text>
  <path d="M395 350C395 300 435 260 485 260C535 260 575 300 575 350V385H395V350Z" fill="#B5935A"/>
  <rect x="380" y="380" width="210" height="285" rx="105" fill="#D4B68C"/>
  <path d="M420 490H550" stroke="#F7F2EB" stroke-width="3"/>
  <text x="485" y="535" text-anchor="middle" fill="#141414" font-family="Georgia, serif" font-size="20" letter-spacing="3">SILK</text>
  <path d="M270 210C310 180 365 185 398 220C424 248 423 292 390 320C356 349 300 337 270 302C238 265 240 232 270 210Z" fill="#171614"/>
  <path d="M300 236C324 220 354 223 372 244" stroke="#C8AD7F" stroke-width="3"/>
  <text x="600" y="790" text-anchor="middle" fill="#765C35" font-family="Georgia, serif" font-size="28" letter-spacing="8">THE HOUSE OF CARE</text>
</svg>
